name rise30.9205peak61.366fall85.3838.mot
datacolumns 19
datarows 35
range 11.33163500000000 11.38828900000000
endheader
time	ground_force1_vx	ground_force1_vy	ground_force1_vz	ground_force1_px	ground_force1_py	ground_force1_pz	ground_force2_vx	ground_force2_vy	ground_force2_vz	ground_force2_px	ground_force2_py	ground_force2_pz	ground_torque1_x	ground_torque1_y	ground_torque1_z	ground_torque2_x	ground_torque2_y	ground_torque2_z	
11.33163500000000	-6.06255900000000	42.59829800000000	-7.79463600000000	0.34065900000000	0.00000000000000	0.10849700000000	-53.11986500000000	786.95365800000002	-44.70331200000000	0.13850800000000	0.00000000000000	-0.04942700000000	0.00000000000000	-5.59172200000000	0.00000000000000	0.00000000000000	-15.43343600000000	0.00000000000000	
11.33330500000000	-6.56762900000000	49.97149500000000	-8.73137900000000	0.34421100000000	0.00000000000000	0.10926400000000	-53.82676500000000	784.47215100000005	-44.51395600000000	0.13750700000000	0.00000000000000	-0.04937200000000	0.00000000000000	-6.33692900000000	0.00000000000000	0.00000000000000	-15.36630100000000	0.00000000000000	
11.33495700000000	-6.93455700000000	57.44704500000000	-9.56984100000000	0.34756500000000	0.00000000000000	0.10994700000000	-54.54541400000000	781.86998900000003	-44.30726600000000	0.13651100000000	0.00000000000000	-0.04931200000000	0.00000000000000	-7.02964200000000	0.00000000000000	0.00000000000000	-15.29872400000000	0.00000000000000	
11.33663700000000	-7.14603100000000	64.92875300000000	-10.28909200000000	0.35075300000000	0.00000000000000	0.11056000000000	-55.27531300000000	779.14473099999998	-44.08285800000000	0.13552000000000	0.00000000000000	-0.04924900000000	0.00000000000000	-7.65438700000000	0.00000000000000	0.00000000000000	-15.23067000000000	0.00000000000000	
11.33829400000000	-7.19205300000000	72.34334100000000	-10.87539300000000	0.35380000000000	0.00000000000000	0.11111400000000	-56.01587400000000	776.29389500000002	-43.84035800000000	0.13453500000000	0.00000000000000	-0.04918300000000	0.00000000000000	-8.20044300000000	0.00000000000000	0.00000000000000	-15.16209400000000	0.00000000000000	
11.33996400000000	-7.06977200000000	79.64275200000000	-11.32226100000000	0.35672600000000	0.00000000000000	0.11161700000000	-56.76641700000000	773.31496300000003	-43.57940200000000	0.13355900000000	0.00000000000000	-0.04911200000000	0.00000000000000	-8.66200100000000	0.00000000000000	0.00000000000000	-15.09294300000000	0.00000000000000	
11.34162700000000	-6.78277100000000	86.80398800000000	-11.62993300000000	0.35954700000000	0.00000000000000	0.11207700000000	-57.52617500000000	770.20539099999996	-43.29963800000000	0.13259100000000	0.00000000000000	-0.04903700000000	0.00000000000000	-9.03790400000000	0.00000000000000	0.00000000000000	-15.02315300000000	0.00000000000000	
11.34332100000000	-6.33994700000000	93.82692100000000	-11.80436600000000	0.36227500000000	0.00000000000000	0.11249800000000	-58.29428600000000	766.96261000000004	-43.00072900000000	0.13163300000000	0.00000000000000	-0.04895800000000	0.00000000000000	-9.33104700000000	0.00000000000000	0.00000000000000	-14.95265100000000	0.00000000000000	
11.34495700000000	-5.75415700000000	100.73059600000001	-11.85594800000000	0.36492000000000	0.00000000000000	0.11288700000000	-59.06979900000000	763.58404499999995	-42.68235600000000	0.13068500000000	0.00000000000000	-0.04887500000000	0.00000000000000	-9.54754300000000	0.00000000000000	0.00000000000000	-14.88135900000000	0.00000000000000	
11.34662100000000	-5.04076900000000	107.54859800000000	-11.79806700000000	0.36749000000000	0.00000000000000	0.11324600000000	-59.85167300000000	760.06711499999994	-42.34422200000000	0.12975000000000	0.00000000000000	-0.04878800000000	0.00000000000000	-9.69577200000000	0.00000000000000	0.00000000000000	-14.80918500000000	0.00000000000000	
11.34829600000000	-4.21627200000000	114.32404300000000	-11.64568700000000	0.36999200000000	0.00000000000000	0.11358000000000	-60.63877500000000	756.40924600000005	-41.98605000000000	0.12882800000000	0.00000000000000	-0.04869600000000	0.00000000000000	-9.78540400000000	0.00000000000000	0.00000000000000	-14.73603300000000	0.00000000000000	
11.34995500000000	-3.29702800000000	121.10464000000000	-11.41404200000000	0.37243000000000	0.00000000000000	0.11389100000000	-61.42988200000000	752.60788500000001	-41.60759200000000	0.12792000000000	0.00000000000000	-0.04859900000000	0.00000000000000	-9.82648500000000	0.00000000000000	0.00000000000000	-14.66179800000000	0.00000000000000	
11.35163400000000	-2.29825600000000	127.93823600000000	-11.11753100000000	0.37480900000000	0.00000000000000	0.11418100000000	-62.22368300000000	748.66050199999995	-41.20862800000000	0.12702700000000	0.00000000000000	-0.04849800000000	0.00000000000000	-9.82864000000000	0.00000000000000	0.00000000000000	-14.58636700000000	0.00000000000000	
11.35329800000000	-1.23328000000000	134.86908700000001	-10.76887500000000	0.37713200000000	0.00000000000000	0.11445300000000	-63.01878300000000	744.56461000000002	-40.78897000000000	0.12615000000000	0.00000000000000	-0.04839100000000	0.00000000000000	-9.80045300000000	0.00000000000000	0.00000000000000	-14.50962100000000	0.00000000000000	
11.35495400000000	-0.11305600000000	141.93503000000001	-10.37854200000000	0.37940100000000	0.00000000000000	0.11470900000000	-63.81369800000000	740.31777199999999	-40.34846300000000	0.12529000000000	0.00000000000000	-0.04828000000000	0.00000000000000	-9.74901900000000	0.00000000000000	0.00000000000000	-14.43143300000000	0.00000000000000	
11.35662600000000	1.05403400000000	149.16560799999999	-9.95445100000000	0.38161800000000	0.00000000000000	0.11494900000000	-64.60686699999999	735.91761099999997	-39.88699200000000	0.12444900000000	0.00000000000000	-0.04816400000000	0.00000000000000	-9.67969900000000	0.00000000000000	0.00000000000000	-14.35167300000000	0.00000000000000	
11.35829500000000	2.26215800000000	156.58111299999999	-9.50191500000000	0.38378400000000	0.00000000000000	0.11517600000000	-65.39664600000000	731.36183100000005	-39.40447900000000	0.12362600000000	0.00000000000000	-0.04804300000000	0.00000000000000	-9.59603600000000	0.00000000000000	0.00000000000000	-14.27020100000000	0.00000000000000	
11.35996200000000	3.50781500000000	164.19246999999999	-9.02379500000000	0.38590100000000	0.00000000000000	0.11539100000000	-66.18131800000000	726.64821900000004	-38.90089000000000	0.12282200000000	0.00000000000000	-0.04791600000000	0.00000000000000	-9.49982900000000	0.00000000000000	0.00000000000000	-14.18687700000000	0.00000000000000	
11.36162100000000	4.78948800000000	172.00179399999999	-8.52080800000000	0.38797000000000	0.00000000000000	0.11559500000000	-66.95909300000000	721.77467000000001	-38.37623700000000	0.12204000000000	0.00000000000000	-0.04778500000000	0.00000000000000	-9.39132600000000	0.00000000000000	0.00000000000000	-14.10155400000000	0.00000000000000	
11.36330800000000	6.10719100000000	180.00347600000001	-7.99194200000000	0.38998900000000	0.00000000000000	0.11578800000000	-67.72811200000000	716.73919400000000	-37.83057600000000	0.12127800000000	0.00000000000000	-0.04764800000000	0.00000000000000	-9.26949200000000	0.00000000000000	0.00000000000000	-14.01408000000000	0.00000000000000	
11.36495800000000	7.46200100000000	188.18560500000001	-7.43492200000000	0.39196000000000	0.00000000000000	0.11597100000000	-68.48645600000000	711.53993300000002	-37.26401600000000	0.12053800000000	0.00000000000000	-0.04750600000000	0.00000000000000	-9.13233600000000	0.00000000000000	0.00000000000000	-13.92430400000000	0.00000000000000	
11.36662600000000	8.85558100000000	196.53156400000000	-6.84669300000000	0.39388200000000	0.00000000000000	0.11614600000000	-69.23214600000000	706.17517799999996	-36.67671300000000	0.11982100000000	0.00000000000000	-0.04735900000000	0.00000000000000	-8.97724400000000	0.00000000000000	0.00000000000000	-13.83206900000000	0.00000000000000	
11.36828700000000	10.28974100000000	205.02164800000000	-6.22386900000000	0.39575500000000	0.00000000000000	0.11631200000000	-69.96314900000000	700.64338299999997	-36.06888000000000	0.11912700000000	0.00000000000000	-0.04720600000000	0.00000000000000	-8.80130100000000	0.00000000000000	0.00000000000000	-13.73721800000000	0.00000000000000	
11.36996100000000	11.76607700000000	213.63458700000001	-5.56312800000000	0.39757800000000	0.00000000000000	0.11647100000000	-70.67738600000000	694.94318399999997	-35.44078000000000	0.11845700000000	0.00000000000000	-0.04704800000000	0.00000000000000	-8.60159000000000	0.00000000000000	0.00000000000000	-13.63959400000000	0.00000000000000	
11.37162600000000	13.28567500000000	222.34886900000001	-4.86153700000000	0.39935100000000	0.00000000000000	0.11662300000000	-71.37273700000000	689.07341199999996	-34.79273300000000	0.11781100000000	0.00000000000000	-0.04688400000000	0.00000000000000	-8.37542500000000	0.00000000000000	0.00000000000000	-13.53903900000000	0.00000000000000	
11.37330000000000	14.84890900000000	231.14382000000001	-4.11678800000000	0.40107300000000	0.00000000000000	0.11676800000000	-72.04704700000001	683.03310999999997	-34.12511600000000	0.11718900000000	0.00000000000000	-0.04671500000000	0.00000000000000	-8.12053900000000	0.00000000000000	0.00000000000000	-13.43539600000000	0.00000000000000	
11.37497200000000	16.45532400000000	240.00040300000001	-3.32735100000000	0.40274300000000	0.00000000000000	0.11690700000000	-72.69813000000001	676.82154800000001	-33.43836200000000	0.11659200000000	0.00000000000000	-0.04654100000000	0.00000000000000	-7.83521100000000	0.00000000000000	0.00000000000000	-13.32850900000000	0.00000000000000	
11.37662000000000	18.10359600000000	248.90172699999999	-2.49254800000000	0.40435900000000	0.00000000000000	0.11704000000000	-73.32378199999999	670.43823999999995	-32.73296000000000	0.11602000000000	0.00000000000000	-0.04636100000000	0.00000000000000	-7.51832600000000	0.00000000000000	0.00000000000000	-13.21822500000000	0.00000000000000	
11.37829300000000	19.79155500000000	257.83330500000000	-1.61255500000000	0.40592100000000	0.00000000000000	0.11716800000000	-73.92178000000000	663.88295500000004	-32.00945800000000	0.11547400000000	0.00000000000000	-0.04617600000000	0.00000000000000	-7.16939800000000	0.00000000000000	0.00000000000000	-13.10439400000000	0.00000000000000	
11.37995900000000	21.51626800000000	266.78307500000000	-0.68835000000000	0.40742900000000	0.00000000000000	0.11729000000000	-74.48989500000000	657.15572899999995	-31.26846200000000	0.11495300000000	0.00000000000000	-0.04598600000000	0.00000000000000	-6.78853500000000	0.00000000000000	0.00000000000000	-12.98687200000000	0.00000000000000	
11.38162900000000	23.27414500000000	275.74124599999999	0.27838500000000	0.40888000000000	0.00000000000000	0.11740700000000	-75.02589800000000	650.25687500000004	-30.51063400000000	0.11445700000000	0.00000000000000	-0.04579000000000	0.00000000000000	-6.37638400000000	0.00000000000000	0.00000000000000	-12.86551700000000	0.00000000000000	
11.38330600000000	25.06108500000000	284.70000199999998	1.28538400000000	0.41027300000000	0.00000000000000	0.11751900000000	-75.52756599999999	643.18699200000003	-29.73669400000000	0.11398700000000	0.00000000000000	-0.04558900000000	0.00000000000000	-5.93404400000000	0.00000000000000	0.00000000000000	-12.74019500000000	0.00000000000000	
11.38495400000000	26.87261100000000	293.65313900000001	2.32993300000000	0.41160700000000	0.00000000000000	0.11762700000000	-75.99269000000000	635.94696699999997	-28.94742000000000	0.11354200000000	0.00000000000000	-0.04538300000000	0.00000000000000	-5.46297800000000	0.00000000000000	0.00000000000000	-12.61078000000000	0.00000000000000	
11.38662300000000	28.70401800000000	302.59565199999997	3.40900300000000	0.41288200000000	0.00000000000000	0.11773100000000	-76.41908400000000	628.53798600000005	-28.14364600000000	0.11312200000000	0.00000000000000	-0.04517100000000	0.00000000000000	-4.96491300000000	0.00000000000000	0.00000000000000	-12.47715100000000	0.00000000000000	
11.38828900000000	30.55049300000000	311.52333900000002	4.51937900000000	0.41409500000000	0.00000000000000	0.11783000000000	-76.80459000000000	620.96152500000005	-27.32626300000000	0.11272700000000	0.00000000000000	-0.04495400000000	0.00000000000000	-4.44175000000000	0.00000000000000	0.00000000000000	-12.33919900000000	0.00000000000000	
